<svg width="1000" height="1000">

	<path d="M500,299.7281 Q500,299.7281 500,353.5535 Q504.3562,351.6801 466.8453,367.9275 Q483.5994,360.761 448.5748,375.8486 Q440.6627,356.843 431.741,335.2081 Q449.7707,325.85 445.5767,328.0164 Q477.8143,311.3086 499.9999,299.7281"/>


	<path d="M500.0004,0 Q499.9852,0.01476556 316.9873,183.0126 Q230.3165,269.5259 131.8454,368.1545 Q7.696301,492.1057 0,500.0003 Q0,250.0002 0,0 Q250.0002,0 500.0004,0"/>


	<path d="M0,500.0001 Q0.01039057,500.0104 316.9873,816.9874 Q348.9219,849.0381 387.5919,887.5919 Q488.7866,989.0905 500.0004,1000 Q250.0002,1000 0,1000 Q0,750 0,500.0001"/>


	<path d="M500.0001,1000 Q2431.745,-954.471 1000,499.9998 Q1000,749.9999 1000,1000 Q750.0001,1000 500.0001,1000"/>


	<path d="M1000,500 Q499.3022,-0.697821 500,0 Q750,0 1000,0 Q1000,250 1000,500"/>


	<path d="M266.0758,596.8945 Q209.5931,513.9256 237.7015,555.1141 Q198.8337,497.8759 200.2719,500 Q218.2952,500 236.3185,500 Q243.1593,500 249.9998,500 Q592.4923,1070.29 299.7279,582.9551 Q217.7824,616.1019 266.0759,596.8943"/>


	<path d="M551.4252,375.8486 Q595.1074,409.8907 582.3265,399.8618 Q583.7065,400.9318 592.3495,407.6506 Q576.5388,423.5554 554.8863,445.1137 Q437.707,359.2061 543.4227,436.731 Q532.4233,428.6802 530.2092,427.0688 Q582.7133,299.9102 551.4254,375.8487"/>


	<path d="M500,917.0447 Q500,885.2991 500,853.5534 Q502.6105,851.532 611.1949,768.4485 Q596.509,733.4281 627.0972,806.8398 Q624.4886,809.1082 617.2451,815.3825 Q1145.094,358.1616 500.0001,917.0445"/>


	<path d="M299.728,417.0446 Q300.5984,416.0265 320.7191,392.2841 Q350.6492,356.9665 353.5533,353.5534 Q378.5545,378.5546 378.5382,378.5381 Q368.0933,391.345 365.0997,395.0387 Q344.3065,420.464 335.208,431.7409 Q365.1642,444.2484 299.7281,417.0446"/>


	<path d="M388.805,768.4484 Q340.5791,724.4327 351.5582,734.4138 Q343.4119,727.0079 306.6353,693.3647 Q322.6498,677.4763 330.2176,669.7823 Q243.9963,593.3144 363.7268,699.2706 Q389.3831,721.8752 403.1054,733.924 Q398.832,744.2274 388.805,768.4483"/>



</svg>