<svg width="1000" height="1000">

	<path d="M223.3036,659.7508 Q256.3138,680.0648 359.5694,743.233 Q353.4431,754.1821 340.2492,776.6964 Q373.8689,803.8508 457.9235,872.3912 Q485.5005,894.9679 500.0001,906.6084 Q-365.0945,1605.96 659.7507,776.6965 Q645.6134,752.087 640.4305,743.233 Q-505.6598,1432.678 776.6964,659.7508 Q680.5242,821.2255 683.0128,816.9872 Q683.0046,816.9954 530.311,969.689 Q494.1994,1005.641 499.9995,1000 Q499.9998,1000 500,1000 Q408.4935,908.4935 316.9872,816.9872 Q302.596,792.8836 223.3036,659.7507"/>


	<path d="M776.6965,340.2493 Q613.5058,240.3366 640.4306,256.7671 Q614.5796,302.1439 659.7507,223.3036 Q660.6295,224.0146 541.4897,127.1317 Q503.2855,96.01198 499.9999,93.3916 Q400.1672,174.4474 340.2492,223.3035 Q354.9648,248.6845 359.5694,256.767 Q286.9698,301.07 223.3037,340.2492 Q124.4012,506.8216 316.9873,183.0127 Q333.2135,166.8161 485.3855,14.61444 Q498.3692,1.583548 500.0004,0 Q500.0002,0 500.0001,0 Q192.2456,-308.6499 683.0126,183.0127 Q799.3738,378.6591 776.6965,340.2493"/>


	<path d="M816.9873,683.0127 Q849.4417,651.0287 946.8047,553.1953 Q1011.073,488.6162 1000,499.9996 Q1000,749.9998 1000,1000 Q796.6958,1000 593.3916,1000 Q681.9169,891.0065 723.3035,840.2493 Q825.1949,669.1724 816.9873,683.0127"/>


	<path d="M1000,500 Q816.9956,316.9956 816.9874,316.9874 Q692.9533,108.4399 723.3035,159.7507 Q640.026,57.42145 627.0737,41.41828 Q636.1819,52.52853 593.3915,0 Q796.6957,0 1000,0 Q1000,250 1000,500"/>


	<path d="M406.6084,0 Q136.1514,333.6004 276.6964,159.7508 Q312.7885,98.88751 183.0128,316.9871 Q234.3086,265.7848 107.8709,392.1291 Q0.01509013,499.9849 0,500.0004 Q0,250.0002 0,0 Q203.3042,0 406.6084,0"/>


	<path d="M0,500.0001 Q143.264,643.4086 183.0127,683.0127 Q174.812,669.184 276.6964,840.2493 Q228.249,780.3755 367.2191,951.5636 Q300.1282,869.2778 406.6084,1000 Q203.3042,1000 0,1000 Q0,750 0,500.0001"/>



</svg>